# Wavefront OBJ exported by MilkShape 3D

mtllib wood_box.mtl

v 30.470703 48.750004 49.749996
v 30.470703 48.749996 -45.750004
v -28.470703 48.749996 -45.750004
v -28.470703 48.750004 49.749996
v 30.470699 -46.750172 49.750004
v 30.470699 -47.750004 -45.749996
v -28.470707 -46.750179 -45.749996
v -28.470707 -46.750172 49.750004
# 8 vertices

vt 0.000000 0.035156
vt 0.968750 0.035156
vt 0.968750 0.964844
vt 0.000000 0.964844
vt 0.789063 0.035156
vt 0.191406 0.035156
vt 0.191406 0.960938
vt 0.789063 0.960938
vt 0.980469 0.035156
vt 0.980469 0.964844
vt 0.796875 0.035156
vt 0.796875 0.960938
vt 0.851563 0.882813
vt 0.851563 0.101563
vt 0.132813 0.105469
vt 0.132813 0.886719
# 16 texture coordinates

vn 0.816497 0.408248 -0.408248
vn 0.333333 0.666667 0.666667
vn 0.662757 -0.668359 0.337711
vn 0.403883 -0.410770 -0.817402
vn -0.333333 0.666667 -0.666667
vn -0.670590 -0.664885 -0.328995
vn -0.816497 0.408248 0.408248
vn -0.408248 -0.408248 0.816497
# 8 normals

g Frame 1
usemtl mat_wood_box_1
s 1
f 2/1/1 1/2/2 5/3/3
f 5/3/3 6/4/4 2/1/1
f 3/5/5 2/6/1 6/7/4
f 6/7/4 7/8/6 3/5/5
f 4/9/7 3/1/5 7/4/6
f 7/4/6 8/10/8 4/9/7
f 1/11/2 4/6/7 8/7/8
f 8/7/8 5/12/3 1/11/2
f 3/13/5 4/14/7 1/15/2
f 1/15/2 2/16/1 3/13/5
f 7/14/6 6/15/4 5/16/3
f 5/16/3 8/13/8 7/14/6
# 12 triangles in group

# 12 triangles total

